<?xml version="1.0" encoding="UTF-8"?>
<!DOCTYPE svg PUBLIC "-//W3C//DTD SVG 1.1//EN"
    "http://www.w3.org/Graphics/SVG/1.1/DTD/svg11.dtd"><svg xmlns="http://www.w3.org/2000/svg" height="200.0000" stroke-opacity="1" viewBox="0 0 200 200" font-size="1" width="200.0000" xmlns:xlink="http://www.w3.org/1999/xlink" stroke="rgb(0,0,0)" version="1.1"><defs></defs><g stroke-opacity="1.0" fill-opacity="0.0" stroke="rgb(0,0,0)" stroke-width="0.7634783583493163" fill="rgb(0,0,0)"><path d="M 160.6111,143.5732 c 0.0000,-16.7359 -13.5671,-30.3030 -30.3030 -30.3030c -16.7359,-0.0000 -30.3030,13.5671 -30.3030 30.3030c -0.0000,16.7359 13.5671,30.3030 30.3030 30.3030c 16.7359,0.0000 30.3030,-13.5671 30.3030 -30.3030"/></g><g stroke-opacity="1.0" fill-opacity="0.0" stroke="rgb(0,0,0)" stroke-width="0.7634783583493163" fill="rgb(0,0,0)"><path d="M 99.9949,143.5732 c 0.0000,-16.7359 -13.5671,-30.3030 -30.3030 -30.3030c -16.7359,-0.0000 -30.3030,13.5671 -30.3030 30.3030c -0.0000,16.7359 13.5671,30.3030 30.3030 30.3030c 16.7359,0.0000 30.3030,-13.5671 30.3030 -30.3030"/></g><g stroke-opacity="1.0" fill-opacity="0.0" stroke="rgb(0,0,0)" stroke-width="0.7634783583493163" fill="rgb(0,0,0)"><path d="M 69.6970,91.0780 c 0.0000,-16.7359 -13.5671,-30.3030 -30.3030 -30.3030c -16.7359,-0.0000 -30.3030,13.5671 -30.3030 30.3030c -0.0000,16.7359 13.5671,30.3030 30.3030 30.3030c 16.7359,0.0000 30.3030,-13.5671 30.3030 -30.3030"/></g><g stroke-opacity="1.0" fill-opacity="0.0" stroke="rgb(0,0,0)" stroke-width="0.7634783583493163" fill="rgb(0,0,0)"><path d="M 99.9949,38.5828 c 0.0000,-16.7359 -13.5671,-30.3030 -30.3030 -30.3030c -16.7359,-0.0000 -30.3030,13.5671 -30.3030 30.3030c -0.0000,16.7359 13.5671,30.3030 30.3030 30.3030c 16.7359,0.0000 30.3030,-13.5671 30.3030 -30.3030"/></g><g stroke-opacity="1.0" fill-opacity="0.0" stroke="rgb(0,0,0)" stroke-width="0.7634783583493163" fill="rgb(0,0,0)"><path d="M 160.6111,38.5828 c 0.0000,-16.7359 -13.5671,-30.3030 -30.3030 -30.3030c -16.7359,-0.0000 -30.3030,13.5671 -30.3030 30.3030c -0.0000,16.7359 13.5671,30.3030 30.3030 30.3030c 16.7359,0.0000 30.3030,-13.5671 30.3030 -30.3030"/></g><g stroke-opacity="1.0" fill-opacity="0.0" stroke="rgb(0,0,0)" stroke-width="0.7634783583493163" fill="rgb(0,0,0)"><path d="M 190.9091,91.0780 c 0.0000,-16.7359 -13.5671,-30.3030 -30.3030 -30.3030c -16.7359,-0.0000 -30.3030,13.5671 -30.3030 30.3030c -0.0000,16.7359 13.5671,30.3030 30.3030 30.3030c 16.7359,0.0000 30.3030,-13.5671 30.3030 -30.3030"/></g><g stroke-opacity="1.0" fill-opacity="0.0" stroke="rgb(0,0,0)" stroke-width="0.7634783583493163" fill="rgb(0,0,0)"><path d="M 130.3030,91.0780 c 0.0000,-16.7359 -13.5671,-30.3030 -30.3030 -30.3030c -16.7359,-0.0000 -30.3030,13.5671 -30.3030 30.3030c -0.0000,16.7359 13.5671,30.3030 30.3030 30.3030c 16.7359,0.0000 30.3030,-13.5671 30.3030 -30.3030"/></g></svg>