<?xml version="1.0" encoding="UTF-8"?>
<!DOCTYPE svg PUBLIC "-//W3C//DTD SVG 1.1//EN"
    "http://www.w3.org/Graphics/SVG/1.1/DTD/svg11.dtd"><svg xmlns="http://www.w3.org/2000/svg" height="200.0000" stroke-opacity="1" viewBox="0 0 200 200" font-size="1" width="200.0000" xmlns:xlink="http://www.w3.org/1999/xlink" stroke="rgb(0,0,0)" version="1.1"><defs></defs><g stroke-opacity="1.0" fill-opacity="1.0" stroke="rgb(0,0,0)" stroke-width="0.7369573772655632" fill="rgb(128,0,128)"><path d="M 162.0061,68.6338 c 0.0000,-32.8847 -26.6583,-59.5429 -59.5429 -59.5429c -32.8847,-0.0000 -59.5429,26.6583 -59.5429 59.5429c -0.0000,32.8847 26.6583,59.5429 59.5429 59.5429c 32.8847,0.0000 59.5429,-26.6583 59.5429 -59.5429"/></g><g stroke-opacity="1.0" fill-opacity="1.0" stroke="rgb(0,0,0)" stroke-width="0.7369573772655632" fill="rgb(255,165,0)"><path d="M 87.1052,151.2138 c 0.0000,-21.9231 -17.7722,-39.6953 -39.6953 -39.6953c -21.9231,-0.0000 -39.6953,17.7722 -39.6953 39.6953c -0.0000,21.9231 17.7722,39.6953 39.6953 39.6953c 21.9231,0.0000 39.6953,-17.7722 39.6953 -39.6953"/></g><g stroke-opacity="1.0" fill-opacity="1.0" stroke="rgb(0,0,0)" stroke-width="0.0" fill="rgb(255,0,0)"><path d="M 51.0947,151.2138 c 0.0000,-2.0351 -1.6497,-3.6848 -3.6848 -3.6848c -2.0351,-0.0000 -3.6848,1.6497 -3.6848 3.6848c -0.0000,2.0351 1.6497,3.6848 3.6848 3.6848c 2.0351,0.0000 3.6848,-1.6497 3.6848 -3.6848"/></g></svg>