<?xml version="1.0" encoding="UTF-8"?>
<!DOCTYPE svg PUBLIC "-//W3C//DTD SVG 1.1//EN"
    "http://www.w3.org/Graphics/SVG/1.1/DTD/svg11.dtd"><svg xmlns="http://www.w3.org/2000/svg" height="300.0000" stroke-opacity="1" viewBox="0 0 300 300" font-size="1" width="300.0000" xmlns:xlink="http://www.w3.org/1999/xlink" stroke="rgb(0,0,0)" version="1.1"><defs></defs><g stroke-opacity="1.0" fill-opacity="1.0" stroke="rgb(0,0,0)" stroke-width="0.0" fill="rgb(0,128,0)"><path d="M 30.1090,337.2734 h 116.4794 c -6.1784,0.0000 -12.1038,2.4544 -16.4727 6.8232l 116.4794,-116.4794 c -4.3688,4.3688 -6.8232,10.2942 -6.8232 16.4727v -116.4794 c -0.0000,12.8660 10.4299,23.2959 23.2959 23.2959c 6.1784,-0.0000 12.1038,-2.4544 16.4727 -6.8232l -232.9587,232.9587 c 9.0976,-9.0976 9.0976,-23.8477 0.0000 -32.9453c -4.3688,-4.3688 -10.2942,-6.8232 -16.4727 -6.8232M 30.1090,290.6817 c 12.8660,-0.0000 23.2959,-10.4299 23.2959 -23.2959c 0.0000,-12.8660 -10.4299,-23.2959 -23.2959 -23.2959c -6.1784,0.0000 -12.1038,2.4544 -16.4727 6.8232l 232.9587,-232.9587 c -9.0976,9.0976 -9.0976,23.8477 -0.0000 32.9453c 9.0976,9.0976 23.8477,9.0976 32.9453 0.0000c 4.3688,-4.3688 6.8232,-10.2942 6.8232 -16.4727v 116.4794 c 0.0000,-12.8660 -10.4299,-23.2959 -23.2959 -23.2959c -12.8660,-0.0000 -23.2959,10.4299 -23.2959 23.2959c -0.0000,12.8660 10.4299,23.2959 23.2959 23.2959c 6.1784,-0.0000 12.1038,-2.4544 16.4727 -6.8232l -116.4794,116.4794 c 9.0976,-9.0976 9.0976,-23.8477 -0.0000 -32.9453c -9.0976,-9.0976 -23.8477,-9.0976 -32.9453 0.0000c -9.0976,9.0976 -9.0976,23.8477 0.0000 32.9453c 4.3688,4.3688 10.2942,6.8232 16.4727 6.8232Z"/></g><g stroke-opacity="1.0" fill-opacity="0.0" stroke="rgb(255,255,255)" stroke-width="3.442366849858936" fill="rgb(0,0,0)"><path d="M 30.1090,313.9775 h 116.4794 l 116.4794,-116.4794 v -116.4794 Z"/></g></svg>