<?xml version="1.0" encoding="UTF-8"?>
<!DOCTYPE svg PUBLIC "-//W3C//DTD SVG 1.1//EN"
    "http://www.w3.org/Graphics/SVG/1.1/DTD/svg11.dtd"><svg xmlns="http://www.w3.org/2000/svg" height="600.0000" stroke-opacity="1" viewBox="0 0 600 600" font-size="1" width="600.0000" xmlns:xlink="http://www.w3.org/1999/xlink" stroke="rgb(0,0,0)" version="1.1"><defs></defs><g stroke-opacity="1.0" fill-opacity="0.0" font-size="14.602597852815435px" stroke="rgb(0,0,0)" stroke-width="1.7367593086253394" fill="rgb(0,0,0)" font-family="Helvetica" font-weight="bold"><text dominant-baseline="middle" transform="matrix(14.6026,0.0000,0.0000,14.6026,471.8466,278.0156)" stroke="none" text-anchor="middle">LineCapSquare</text></g><g stroke-opacity="1.0" fill-opacity="1.0" stroke="rgb(0,0,0)" stroke-width="0.0" fill="rgb(0,128,0)"><path d="M 400.1711,149.7994 h -29.2052 v 58.4104 h 29.2052 h 146.0260 c -16.1296,-0.0000 -29.2052,13.0756 -29.2052 29.2052c -0.0000,6.8322 2.3953,13.4481 6.7691 18.6967l -73.0130,-87.6156 l 77.1071,22.4361 l 44.8721,-154.2142 l -77.1071,-22.4361 l 73.0130,87.6156 c -10.3259,-12.3911 -28.7417,-14.0653 -41.1328 -3.7393c -12.3911,10.3259 -14.0653,28.7417 -3.7393 41.1328c 5.5488,6.6586 13.7685,10.5085 22.4361 10.5085Z"/></g><g stroke-opacity="1.0" fill-opacity="0.0" stroke="rgb(255,255,255)" stroke-width="4.341898271563348" fill="rgb(0,0,0)"><path d="M 400.1711,179.0046 h 146.0260 l -73.0130,-87.6156 "/></g><g stroke-opacity="1.0" fill-opacity="0.0" font-size="14.602597852815435px" stroke="rgb(0,0,0)" stroke-width="1.7367593086253394" fill="rgb(0,0,0)" font-family="Helvetica" font-weight="bold"><text dominant-baseline="middle" transform="matrix(14.6026,0.0000,0.0000,14.6026,283.3503,253.4869)" stroke="none" text-anchor="middle">LineCapRound</text></g><g stroke-opacity="1.0" fill-opacity="1.0" stroke="rgb(0,0,0)" stroke-width="0.0" fill="rgb(0,128,0)"><path d="M 210.3374,138.1052 c 16.1296,-0.0000 29.2052,-13.0756 29.2052 -29.2052c 0.0000,-16.1296 -13.0756,-29.2052 -29.2052 -29.2052h 146.0260 c -16.1296,-0.0000 -29.2052,13.0756 -29.2052 29.2052c -0.0000,6.8322 2.3953,13.4481 6.7691 18.6967l -73.0130,-87.6156 c -15.4873,-4.5064 -31.6954,4.3954 -36.2017 19.8827c -4.5064,15.4873 4.3954,31.6954 19.8827 36.2017l 73.0130,87.6156 c -10.3259,-12.3911 -28.7417,-14.0653 -41.1328 -3.7393c -12.3911,10.3259 -14.0653,28.7417 -3.7393 41.1328c 5.5488,6.6586 13.7685,10.5085 22.4361 10.5085Z"/></g><g stroke-opacity="1.0" fill-opacity="0.0" stroke="rgb(255,255,255)" stroke-width="4.341898271563348" fill="rgb(0,0,0)"><path d="M 210.3374,167.3104 h 146.0260 l -73.0130,-87.6156 "/></g><g stroke-opacity="1.0" fill-opacity="0.0" font-size="14.602597852815435px" stroke="rgb(0,0,0)" stroke-width="1.7367593086253394" fill="rgb(0,0,0)" font-family="Helvetica" font-weight="bold"><text dominant-baseline="middle" transform="matrix(14.6026,0.0000,0.0000,14.6026,111.5037,278.0156)" stroke="none" text-anchor="middle">LineCapButt</text></g><g stroke-opacity="1.0" fill-opacity="1.0" stroke="rgb(0,0,0)" stroke-width="0.0" fill="rgb(0,128,0)"><path d="M 27.2727,149.7994 v 58.4104 h 146.0260 c -16.1296,-0.0000 -29.2052,13.0756 -29.2052 29.2052c -0.0000,6.8322 2.3953,13.4481 6.7691 18.6967l -73.0130,-87.6156 l 44.8721,-154.2142 l 73.0130,87.6156 c -10.3259,-12.3911 -28.7417,-14.0653 -41.1328 -3.7393c -12.3911,10.3259 -14.0653,28.7417 -3.7393 41.1328c 5.5488,6.6586 13.7685,10.5085 22.4361 10.5085Z"/></g><g stroke-opacity="1.0" fill-opacity="0.0" stroke="rgb(255,255,255)" stroke-width="4.341898271563348" fill="rgb(0,0,0)"><path d="M 27.2727,179.0046 h 146.0260 l -73.0130,-87.6156 "/></g></svg>