<?xml version="1.0" encoding="UTF-8"?>
<!DOCTYPE svg PUBLIC "-//W3C//DTD SVG 1.1//EN"
    "http://www.w3.org/Graphics/SVG/1.1/DTD/svg11.dtd"><svg xmlns="http://www.w3.org/2000/svg" height="600.0000" stroke-opacity="1" viewBox="0 0 600 600" font-size="1" width="600.0000" xmlns:xlink="http://www.w3.org/1999/xlink" stroke="rgb(0,0,0)" version="1.1"><defs></defs><g stroke-opacity="1.0" fill-opacity="0.0" font-size="14.427523665192632px" stroke="rgb(0,0,0)" stroke-width="3.0" fill="rgb(0,0,0)" font-family="Helvetica" font-weight="bold"><text dominant-baseline="middle" transform="matrix(14.4275,0.0000,0.0000,14.4275,489.5061,180.2631)" stroke="none" text-anchor="middle">LineJoinBevel</text></g><g stroke-opacity="1.0" fill-opacity="0.0" stroke="rgb(0,128,0)" stroke-width="3.0" fill="rgb(0,0,0)"><path d="M 406.2850,158.6218 h 144.2752 l 22.1671,-47.3276 l -72.1376,-86.5651 "/></g><g stroke-opacity="1.0" fill-opacity="0.0" stroke="rgb(0,0,255)" stroke-width="3.0" fill="rgb(0,0,0)"><path d="M 406.2850,129.7667 h 144.2752 l -72.1376,-86.5651 "/></g><g stroke-opacity="1.0" fill-opacity="0.0" font-size="14.427523665192632px" stroke="rgb(0,0,0)" stroke-width="3.0" fill="rgb(0,0,0)" font-family="Helvetica" font-weight="bold"><text dominant-baseline="middle" transform="matrix(14.4275,0.0000,0.0000,14.4275,319.7198,194.6906)" stroke="none" text-anchor="middle">LineJoinRound</text></g><g stroke-opacity="1.0" fill-opacity="0.0" stroke="rgb(0,128,0)" stroke-width="3.0" fill="rgb(0,0,0)"><path d="M 247.5822,125.7217 h 144.2752 c -15.9362,-0.0000 -28.8550,12.9188 -28.8550 28.8550c -0.0000,6.7502 2.3666,13.2869 6.6880 18.4726l -72.1376,-86.5651 "/></g><g stroke-opacity="1.0" fill-opacity="0.0" stroke="rgb(0,0,255)" stroke-width="3.0" fill="rgb(0,0,0)"><path d="M 247.5822,96.8667 h 144.2752 l -72.1376,-86.5651 "/></g><g stroke-opacity="1.0" fill-opacity="0.0" font-size="14.427523665192632px" stroke="rgb(0,0,0)" stroke-width="3.0" fill="rgb(0,0,0)" font-family="Helvetica" font-weight="bold"><text dominant-baseline="middle" transform="matrix(14.4275,0.0000,0.0000,14.4275,130.2137,180.2631)" stroke="none" text-anchor="middle">LineJoinMiter</text></g><g stroke-opacity="1.0" fill-opacity="0.0" stroke="rgb(0,128,0)" stroke-width="3.0" fill="rgb(0,0,0)"><path d="M 27.2727,158.6218 h 144.2752 h 61.6067 l -39.4397,-47.3276 l -72.1376,-86.5651 "/></g><g stroke-opacity="1.0" fill-opacity="0.0" stroke="rgb(0,0,255)" stroke-width="3.0" fill="rgb(0,0,0)"><path d="M 27.2727,129.7667 h 144.2752 l -72.1376,-86.5651 "/></g></svg>