<?xml version="1.0" encoding="UTF-8"?>
<!DOCTYPE svg PUBLIC "-//W3C//DTD SVG 1.1//EN"
    "http://www.w3.org/Graphics/SVG/1.1/DTD/svg11.dtd"><svg xmlns="http://www.w3.org/2000/svg" height="300.0000" stroke-opacity="1" viewBox="0 0 300 300" font-size="1" width="300.0000" xmlns:xlink="http://www.w3.org/1999/xlink" stroke="rgb(0,0,0)" version="1.1"><defs></defs><g stroke-opacity="1.0" fill-opacity="0.0" stroke="rgb(0,128,0)" stroke-width="3.0" fill="rgb(0,0,0)"><path d="M 228.2478,235.7939 l 58.1159,-100.6596 c -8.3051,14.3849 -8.3051,32.1078 0.0000 46.4927l -58.1159,-100.6596 c 8.3051,14.3849 23.6536,23.2463 40.2638 23.2463l -116.2317,-0.0000 c 16.6102,-0.0000 31.9587,-8.8615 40.2638 -23.2463l -58.1159,100.6596 c 8.3051,-14.3849 8.3051,-32.1078 0.0000 -46.4927l 58.1159,100.6596 c -8.3051,-14.3849 -23.6536,-23.2463 -40.2638 -23.2463l 116.2317,0.0000 c -16.6102,-0.0000 -31.9587,8.8615 -40.2638 23.2463"/></g><g stroke-opacity="1.0" fill-opacity="0.0" stroke="rgb(0,0,255)" stroke-width="3.0" fill="rgb(0,0,0)"><path d="M 187.9839,212.5475 l 58.1159,-100.6596 l -58.1159,-100.6596 l -116.2317,-0.0000 l -58.1159,100.6596 l 58.1159,100.6596 Z"/></g></svg>